<svg height="512pt" viewBox="-30 0 511 512" width="512pt" xmlns="http://www.w3.org/2000/svg"><path d="m225.503906 512-5.910156-2.53125c-65.175781-27.933594-120.296875-74.140625-159.402344-133.625-39.050781-59.402344-59.691406-128.328125-59.691406-199.320312v-81.476563l225.003906-95.046875 225.003906 95.046875v81.476563c0 70.992187-20.644531 139.914062-59.695312 199.320312-39.101562 59.484375-94.222656 105.691406-159.398438 133.625zm-195.003906-397.058594v61.582032c0 131.035156 76.324219 249.167968 195.003906 302.769531 118.679688-53.601563 195-171.734375 195-302.769531v-61.582032l-195-82.375zm0 0"/><path d="m224.503906 392c-74.441406 0-135.003906-60.5625-135.003906-135.003906s60.5625-135 135.003906-135c74.4375 0 135 60.558594 135 135s-60.558594 135.003906-135 135.003906zm0-240.003906c-57.898437 0-105.003906 47.101562-105.003906 105 0 57.898437 47.105469 105 105.003906 105 57.898438 0 105-47.101563 105-105 0-57.898438-47.101562-105-105-105zm0 0"/><path d="m209.503906 323.210938-55.609375-55.605469 21.214844-21.214844 34.394531 34.394531 64.394532-64.394531 21.210937 21.210937zm0 0"/></svg>