<svg id="Capa_1" enable-background="new 0 0 501.069 501.069" height="512" viewBox="0 0 501.069 501.069" width="512" xmlns="http://www.w3.org/2000/svg"><g><g><path d="m112.993 131.659c8.139 0 14.737-6.598 14.737-14.737v-6.871c31.384-17.587 31.416-62.968 0-80.572v-6.871c0-8.139-6.598-14.737-14.737-14.737s-14.737 6.598-14.737 14.737v16.711c0 6.725 4.553 12.597 11.065 14.272 16.626 4.277 16.632 28.069 0 32.348-6.513 1.676-11.065 7.547-11.065 14.272v16.711c0 8.139 6.598 14.737 14.737 14.737z"/><path d="m238.745 131.659c8.139 0 14.737-6.598 14.737-14.737v-6.871c31.383-17.585 31.417-62.968 0-80.572v-6.871c0-8.139-6.598-14.737-14.737-14.737s-14.737 6.598-14.737 14.737v16.711c0 6.725 4.553 12.597 11.065 14.272 16.626 4.277 16.632 28.069 0 32.348-6.513 1.676-11.065 7.547-11.065 14.272v16.711c.001 8.139 6.599 14.737 14.737 14.737z"/><path d="m364.498 131.659c8.139 0 14.737-6.598 14.737-14.737v-6.871c31.383-17.585 31.417-62.968 0-80.572v-6.871c0-8.139-6.598-14.737-14.737-14.737s-14.737 6.598-14.737 14.737v16.711c0 6.725 4.553 12.597 11.065 14.272 16.625 4.277 16.633 28.069 0 32.348-6.513 1.676-11.065 7.547-11.065 14.272v16.711c.001 8.139 6.599 14.737 14.737 14.737z"/><path d="m486.321 400.848h-69.691c32.243-25.324 52.989-64.655 52.989-108.739 0-169.136 0-88.609 0-112.311 0-8.139-6.598-14.737-14.737-14.737h-408.695c-8.139 0-14.737 6.598-14.737 14.737v112.311c0 44.084 20.747 83.413 52.989 108.739h-69.691c-10.278 0-17.409 10.285-13.798 19.911l23.579 62.876c2.156 5.751 7.655 9.562 13.798 9.562h424.416c6.143 0 11.642-3.811 13.798-9.562l23.579-62.876c3.608-9.624-3.518-19.911-13.799-19.911zm-425.398-206.313h379.223v65.971c-9.778 6.396-18.564 14.395-26.096 23.75-43.755-54.189-119.853-54.083-163.516.027-43.916-54.423-120.041-53.872-163.516-.027-7.532-9.355-16.317-17.354-26.096-23.75zm.246 104.801c4.888 5.478 9.19 11.684 12.795 18.516 5.518 10.457 20.535 10.461 26.06.01 31.562-59.698 105.98-59.585 137.481 0 5.524 10.449 20.53 10.45 26.055 0 31.561-59.698 105.981-59.585 137.481 0 5.575 10.544 20.579 10.377 26.06-.01 3.606-6.832 7.908-13.038 12.795-18.516-3.732 56.602-50.962 101.512-108.492 101.512h-161.743c-57.53 0-104.759-44.91-108.492-101.512zm391.361 164.389h-403.991l-12.526-33.403h429.043z"/></g></g></svg>